 <svg version="1.0" xmlns="http://www.w3.org/2000/svg"  width="900.000000pt" height="363.000000pt" viewBox="0 0 900.000000 363.000000"  preserveAspectRatio="xMidYMid meet">  <g transform="translate(0.000000,363.000000) scale(0.100000,-0.100000)" fill="#000000" stroke="none"> <path d="M7645 3329 c-38 -11 -60 -49 -69 -116 -13 -104 -50 -172 -106 -196 -14 -5 -50 -15 -80 -22 -49 -10 -57 -15 -73 -48 -25 -50 -15 -90 27 -117 19 -11 46 -20 62 -20 36 0 104 -31 125 -56 23 -27 46 -91 54 -151 8 -60 35 -91 87 -99 56 -10 84 23 104 120 24 120 69 174 162 194 60 14 90 36 97 75 13 70 -18 101 -119 118 -54 9 -98 43 -114 88 -9 24 -22 81 -37 158 -6 32 -56 84 -78 82 -7 0 -26 -5 -42 -10z m68 -373 c15 -19 27 -37 27 -39 0 -12 -60 -67 -72 -67 -15 1 -78 56 -78 69 0 5 9 12 19 16 11 3 26 17 35 30 22 33 36 31 69 -9z"/> <path d="M2721 3268 c-94 -16 -143 -76 -191 -234 -12 -38 -27 -89 -35 -114 -43 -143 -77 -462 -79 -753 l-2 -233 -35 -50 c-46 -63 -128 -227 -166 -329 -60 -160 -64 -174 -89 -310 -42 -228 -33 -205 -97 -242 -69 -41 -167 -130 -205 -187 -64 -97 -107 -213 -117 -316 -3 -30 -7 -55 -9 -57 -2 -2 -315 -6 -695 -8 -470 -3 -698 -8 -712 -15 -11 -6 -29 -26 -39 -43 -18 -28 -20 -51 -20 -204 l0 -173 80 0 81 0 -2 111 c-1 84 2 114 12 121 8 5 142 8 324 7 171 -2 503 -2 739 -1 l429 2 56 -57 c56 -58 102 -84 211 -119 85 -27 374 -24 490 5 130 33 178 56 251 119 l53 47 250 1 c211 1 1375 3 2226 5 124 0 236 1 250 2 14 1 100 -2 191 -7 l166 -8 44 -40 c66 -59 147 -101 219 -112 24 -4 51 -12 59 -19 24 -20 338 -15 436 8 116 26 195 66 248 125 l45 50 711 1 c391 0 715 -2 721 -6 6 -4 10 -53 10 -121 l0 -114 80 0 80 0 0 176 c0 97 -4 184 -10 194 -5 10 -24 29 -42 42 l-33 23 -658 1 c-363 1 -663 6 -667 11 -4 4 -13 42 -19 83 -36 216 -149 374 -331 464 -118 59 -103 36 -129 199 -6 38 -15 76 -20 85 -5 9 -12 37 -16 62 -4 25 -11 50 -15 55 -4 6 -10 21 -13 35 -7 34 -26 83 -59 156 -15 34 -28 69 -28 77 0 8 -7 20 -15 27 -8 7 -15 17 -15 22 0 14 -67 114 -112 169 l-38 45 0 170 c1 234 -48 685 -81 745 -5 10 -9 30 -9 46 -1 15 -7 39 -15 53 -8 14 -14 35 -15 46 0 12 -7 35 -15 50 -8 16 -15 36 -15 44 0 8 -7 24 -15 34 -8 11 -15 26 -15 33 0 22 -42 73 -79 96 -28 17 -51 21 -120 21 -88 1 -148 -14 -249 -64 -23 -11 -52 -25 -65 -30 -42 -19 -167 -89 -213 -119 -25 -17 -47 -31 -50 -31 -3 0 -49 -33 -102 -74 -99 -75 -178 -152 -201 -194 -10 -18 -18 -22 -34 -17 -12 3 -35 10 -52 15 -16 5 -55 18 -86 29 -30 12 -91 26 -135 31 -43 5 -113 14 -154 20 -99 13 -505 14 -600 1 -137 -18 -287 -49 -344 -70 -11 -5 -38 -14 -59 -20 l-38 -12 -77 72 c-42 39 -93 82 -112 95 -19 13 -62 46 -95 74 -33 27 -63 49 -67 50 -4 0 -28 14 -53 31 -42 28 -99 60 -230 126 -27 14 -62 32 -77 39 -14 8 -33 14 -43 14 -9 0 -28 6 -43 14 -39 20 -140 33 -191 24z m123 -203 c11 -8 32 -15 47 -15 14 0 32 -7 39 -15 7 -8 18 -15 25 -15 23 0 276 -151 365 -218 60 -45 200 -173 200 -184 0 -4 -18 -24 -40 -44 -44 -40 -50 -67 -21 -101 15 -18 30 -23 63 -23 24 0 48 4 53 9 6 5 51 25 100 46 50 20 105 43 123 51 18 8 44 14 57 14 28 0 31 -8 40 -112 11 -126 47 -188 110 -188 52 0 70 30 68 110 -1 37 -8 91 -17 120 -32 107 -21 125 74 131 l55 4 8 -125 c4 -69 12 -144 18 -168 21 -77 87 -97 134 -40 l27 32 -5 141 c-3 77 -7 149 -9 160 -3 19 3 20 92 20 l95 0 -1 -50 c0 -27 -6 -101 -13 -164 -12 -108 -12 -115 7 -140 28 -38 94 -42 117 -7 27 40 44 123 46 220 1 50 4 97 6 104 6 15 110 17 148 2 22 -8 26 -15 22 -33 -49 -190 -55 -243 -32 -287 13 -25 22 -30 50 -30 35 0 58 16 82 58 13 22 43 153 43 188 0 11 6 28 13 38 14 20 15 19 152 -43 117 -54 136 -61 176 -67 33 -6 44 -3 64 16 35 33 33 78 -3 113 -15 15 -33 27 -40 27 -24 0 -11 41 26 81 32 37 223 189 236 189 2 0 33 19 67 42 114 75 317 168 368 168 34 0 69 -57 91 -150 5 -19 13 -51 18 -70 32 -119 59 -272 72 -420 20 -226 22 -307 11 -422 -13 -133 -19 -113 80 -250 58 -79 131 -212 162 -293 8 -22 22 -58 30 -80 8 -22 22 -67 30 -100 9 -33 22 -86 30 -117 21 -78 13 -85 -93 -92 -195 -13 -274 -40 -385 -128 -131 -104 -205 -255 -222 -453 -3 -33 -9 -62 -14 -65 -6 -5 -2797 -5 -2831 -1 -5 1 -8 43 -8 94 0 90 -19 174 -47 209 -6 7 -20 32 -32 55 -44 88 -140 176 -246 227 -112 54 -167 67 -312 71 -57 2 -107 6 -112 10 -12 7 -5 54 20 154 53 209 136 400 244 561 55 82 57 87 49 130 -11 68 -14 428 -4 490 5 30 14 98 20 150 6 52 17 127 25 165 37 178 42 201 53 222 7 12 12 29 12 38 0 9 8 27 18 40 20 28 75 33 106 10z m-359 -2168 c110 -13 191 -54 262 -130 30 -33 59 -69 64 -81 5 -12 13 -28 18 -36 22 -36 42 -129 35 -167 -15 -82 -80 -183 -119 -183 -7 0 -16 19 -19 44 -4 25 -20 63 -37 85 -25 36 -34 41 -68 41 -30 0 -42 -5 -55 -25 -19 -30 -22 -76 -7 -125 6 -19 11 -40 11 -47 0 -22 -71 -44 -130 -41 l-55 3 -8 84 c-9 103 -23 123 -80 119 -55 -4 -80 -40 -87 -121 l-5 -62 -34 3 c-19 1 -50 15 -72 33 -38 30 -39 32 -39 98 0 85 -16 111 -69 111 -22 0 -44 -6 -51 -15 -7 -8 -19 -15 -27 -15 -11 0 -13 10 -7 48 26 183 183 341 373 376 81 15 105 16 206 3z m4242 -19 c15 -8 59 -30 97 -49 121 -60 233 -207 244 -321 5 -51 -6 -62 -29 -28 -8 12 -30 23 -51 27 -31 5 -40 1 -63 -23 -25 -26 -26 -34 -23 -103 l3 -75 -49 -24 c-57 -27 -103 -27 -98 1 6 34 -19 125 -39 143 -26 23 -82 23 -109 -1 -17 -16 -20 -30 -20 -107 0 -63 -3 -88 -12 -89 -54 -3 -156 4 -171 13 -14 7 -17 16 -13 36 4 15 9 53 13 85 5 51 3 60 -17 82 -52 55 -127 16 -152 -81 -7 -24 -17 -44 -23 -44 -16 0 -70 59 -91 100 -25 50 -22 163 6 227 60 132 170 223 300 247 54 10 268 -2 297 -16z"/> <path d="M3522 1500 c-70 -19 -102 -44 -139 -107 -39 -66 -53 -144 -41 -222 11 -73 26 -102 77 -149 111 -103 294 -95 378 16 56 74 63 95 63 186 0 149 -56 238 -174 278 -63 21 -85 20 -164 -2z"/> <path d="M5229 1504 c-13 -7 -32 -13 -41 -14 -21 0 -84 -74 -107 -125 -25 -56 -34 -151 -21 -212 26 -122 129 -203 256 -203 98 0 182 46 231 128 26 44 28 54 27 147 0 80 -5 109 -22 145 -28 59 -87 114 -139 129 -65 18 -156 21 -184 5z"/> <path d="M4398 1252 c-32 -4 -68 -45 -68 -76 0 -11 9 -34 20 -51 11 -16 20 -36 20 -43 0 -23 -63 -72 -92 -72 -37 0 -56 22 -64 78 -3 26 -13 59 -21 75 -12 23 -19 27 -58 27 -40 0 -47 -4 -65 -32 -24 -39 -27 -123 -6 -183 25 -71 97 -128 177 -141 52 -9 139 19 175 55 35 37 51 38 85 7 92 -86 242 -82 311 7 50 64 60 86 65 146 7 96 -54 167 -121 141 -29 -11 -56 -67 -56 -117 0 -43 -14 -63 -42 -63 -30 0 -73 26 -87 54 -12 21 -11 30 3 59 22 47 20 71 -6 102 -19 21 -33 26 -83 28 -33 1 -72 1 -87 -1z"/> <path d="M5649 868 c-45 -20 -79 -60 -79 -91 0 -9 11 -29 24 -44 24 -27 27 -28 120 -27 92 1 98 2 126 29 59 57 27 123 -69 144 -66 14 -67 14 -122 -11z"/> <path d="M3113 864 c-37 -16 -63 -49 -63 -80 0 -33 54 -74 98 -75 114 -4 146 2 169 29 13 15 23 36 23 48 0 30 -49 70 -102 83 -59 14 -85 13 -125 -5z"/> <path d="M1337 2621 c-15 -18 -29 -53 -36 -88 -31 -163 -38 -178 -107 -245 -37 -37 -62 -50 -120 -68 -73 -21 -105 -46 -119 -91 -8 -25 29 -86 58 -94 12 -3 40 -11 62 -16 83 -23 122 -40 148 -67 34 -36 74 -117 82 -167 18 -114 71 -158 145 -120 29 15 51 65 65 150 19 121 99 198 225 219 46 8 110 60 110 90 0 51 -74 106 -144 106 -17 0 -42 7 -56 15 -14 8 -32 17 -40 21 -22 10 -59 57 -60 74 0 9 -4 20 -8 25 -17 19 -52 142 -52 181 0 31 -7 47 -31 72 -42 43 -87 44 -122 3z m91 -369 c5 -16 32 -48 59 -72 l49 -44 -53 -55 c-29 -31 -53 -61 -53 -68 0 -30 -25 -20 -73 29 -28 29 -65 63 -82 75 l-30 21 25 10 c27 11 76 60 103 105 22 35 42 34 55 -1z"/> </g> </svg> 