 <svg version="1.0" xmlns="http://www.w3.org/2000/svg"  width="900.000000pt" height="921.000000pt" viewBox="0 0 900.000000 921.000000"  preserveAspectRatio="xMidYMid meet">  <g transform="translate(0.000000,921.000000) scale(0.100000,-0.100000)" fill="#000000" stroke="none"> <path d="M4210 7975 c-96 -7 -206 -18 -245 -24 -133 -23 -230 -42 -281 -57 -28 -8 -59 -14 -70 -14 -10 0 -36 -6 -59 -14 -22 -7 -67 -21 -100 -31 -33 -9 -78 -24 -100 -32 -22 -8 -56 -21 -75 -28 -289 -105 -637 -294 -861 -467 -204 -157 -406 -345 -539 -503 -23 -27 -52 -61 -64 -75 -86 -99 -260 -354 -335 -490 -64 -117 -150 -297 -186 -390 -9 -25 -22 -54 -28 -65 -5 -11 -14 -33 -18 -50 -4 -16 -18 -61 -32 -100 -203 -593 -225 -1277 -60 -1915 13 -52 28 -111 33 -130 8 -33 15 -56 46 -142 82 -226 185 -449 279 -606 232 -386 542 -733 885 -991 140 -106 187 -137 315 -213 55 -32 107 -63 115 -68 24 -14 169 -85 235 -114 109 -49 120 -53 160 -69 161 -60 250 -89 333 -107 23 -5 51 -14 61 -20 11 -5 30 -10 42 -10 12 0 45 -6 73 -14 59 -17 191 -39 361 -61 163 -21 577 -21 740 0 212 27 314 46 465 85 25 6 61 15 80 20 47 12 127 36 170 51 78 27 185 67 225 85 124 55 159 70 225 102 88 43 245 134 344 200 66 43 264 188 276 201 3 3 32 28 65 56 85 70 300 283 365 362 30 36 60 71 65 77 22 22 162 213 207 282 97 146 210 354 276 504 8 19 19 44 25 54 5 11 13 31 17 45 5 14 18 51 30 81 23 61 52 147 77 230 8 30 22 75 29 99 8 25 14 53 14 64 0 11 6 43 14 71 17 59 39 191 61 361 20 163 21 568 0 730 -42 332 -101 579 -195 825 -12 30 -25 66 -30 80 -17 53 -73 174 -132 287 -82 159 -74 144 -162 284 -63 99 -150 218 -264 359 -71 88 -379 387 -487 473 -197 157 -399 284 -630 396 -142 69 -168 81 -235 106 -189 72 -180 69 -360 121 -193 56 -466 99 -716 114 -196 11 -207 11 -444 -5z m680 -320 c256 -40 460 -92 650 -165 30 -12 66 -25 80 -30 56 -18 281 -125 365 -173 206 -118 349 -219 520 -368 154 -133 373 -367 444 -473 8 -11 39 -53 68 -93 29 -40 53 -74 53 -77 0 -3 17 -31 38 -63 80 -121 184 -325 247 -483 9 -25 21 -54 26 -65 12 -28 39 -104 49 -140 5 -16 19 -61 30 -100 12 -38 25 -88 29 -110 4 -22 13 -58 19 -80 10 -40 30 -155 53 -310 21 -142 23 -489 5 -653 -30 -267 -86 -526 -153 -707 -9 -22 -21 -56 -28 -75 -36 -97 -87 -213 -140 -320 -127 -258 -325 -534 -549 -768 -159 -166 -469 -411 -621 -492 -11 -6 -33 -19 -50 -30 -51 -33 -262 -138 -353 -176 -174 -72 -212 -85 -397 -137 -134 -38 -305 -70 -501 -93 -160 -18 -527 -16 -669 5 -275 40 -404 69 -610 137 -166 55 -378 142 -445 184 -8 5 -37 21 -65 35 -27 14 -63 34 -80 45 -16 11 -39 24 -50 30 -87 46 -296 197 -420 304 -111 94 -307 298 -401 414 -115 144 -259 364 -323 492 -12 25 -26 52 -31 60 -4 8 -23 47 -40 85 -18 39 -37 79 -43 89 -5 11 -13 31 -17 45 -5 14 -18 51 -30 81 -185 481 -244 1036 -164 1555 27 174 81 401 120 505 7 19 23 66 35 103 12 37 26 70 30 73 5 3 9 12 9 20 0 18 106 248 140 304 5 8 33 56 62 105 268 465 675 864 1163 1141 75 43 323 162 365 175 14 4 50 17 80 29 241 93 601 172 835 184 164 8 563 -3 665 -19z"/> <path d="M3572 6032 c-18 -10 -42 -31 -52 -48 -19 -28 -20 -59 -20 -1415 l0 -1386 34 -39 c33 -38 36 -39 99 -39 41 0 71 6 82 15 17 14 47 33 75 47 8 4 47 26 85 48 39 23 77 44 85 48 8 4 29 16 45 27 17 11 37 23 45 27 8 4 47 26 85 48 39 23 77 44 85 48 8 4 29 16 45 27 17 11 37 23 45 27 8 4 47 26 85 48 39 23 77 44 85 48 8 4 29 16 45 27 17 11 37 23 45 27 8 4 47 26 85 48 39 23 77 44 85 48 8 4 29 16 45 27 17 11 37 23 45 27 18 8 208 119 230 133 8 6 22 13 30 17 16 7 206 117 230 133 8 6 22 13 30 17 8 4 47 26 85 48 39 23 77 44 85 48 8 4 29 16 45 27 17 11 37 23 45 27 8 4 47 26 85 48 39 23 77 44 85 48 8 4 31 17 50 28 19 12 76 45 125 74 120 70 130 82 130 155 0 48 -5 63 -25 85 -19 21 -160 109 -220 138 -8 4 -24 13 -35 20 -11 7 -63 37 -115 67 -52 30 -104 60 -115 67 -11 7 -27 16 -35 20 -8 4 -58 32 -110 63 -52 31 -102 59 -110 63 -8 4 -28 16 -45 27 -16 11 -37 23 -45 27 -18 8 -159 89 -180 103 -8 6 -22 13 -30 17 -8 4 -58 32 -110 63 -52 31 -102 59 -110 63 -8 4 -28 16 -45 27 -16 11 -37 23 -45 27 -8 4 -46 25 -85 48 -38 22 -77 44 -85 48 -8 4 -22 11 -30 17 -8 5 -62 37 -120 70 -58 33 -112 65 -120 70 -8 6 -22 13 -30 17 -8 4 -58 32 -110 63 -52 31 -102 59 -110 63 -8 4 -28 16 -45 27 -16 11 -37 23 -45 27 -16 7 -155 87 -180 103 -35 22 -104 50 -124 50 -11 -1 -36 -9 -54 -18z"/> </g> </svg> 